<svg xmlns="http://www.w3.org/2000/svg" viewBox="0 0 145.7 37.9"><title>Ресурс 1venzel</title><path d="M145.7,19a6.6,6.6,0,0,1-1.4,4.1,6.7,6.7,0,0,1-9.1.4,5.3,5.3,0,0,1-1.8-4,4.3,4.3,0,0,1,.8-2.7h.2a4,4,0,0,0-.6,2.2,4.3,4.3,0,0,0,1.2,3.1,5.2,5.2,0,0,0,3.7,1.3,5.9,5.9,0,0,0,3.3-1,5.4,5.4,0,0,0,2-4.5,6.1,6.1,0,0,0-2.5-5.1c-1.8-1.4-4.4-2.1-7.7-2.1a26.5,26.5,0,0,0-5.2.7,29.2,29.2,0,0,0-6.5,2,14.8,14.8,0,0,1,2.5,2.5,6.6,6.6,0,0,1,1.3,3.7,6.2,6.2,0,0,1-1.8,4.6,5.6,5.6,0,0,1-4,1.7,5.1,5.1,0,0,1-3.5-1.2,4.3,4.3,0,0,1-1.4-3.2,1.7,1.7,0,0,1,.9-1.6,2.7,2.7,0,0,1,1.7-.6,2.3,2.3,0,0,1,1.4.4,3.1,3.1,0,0,0-1.7.2,1.6,1.6,0,0,0-.6,1.3c0,2.1,1.1,3.2,3.4,3.2a6.1,6.1,0,0,0,3-.8,4.2,4.2,0,0,0,2-3.8,5.7,5.7,0,0,0-.9-3.2,16.6,16.6,0,0,0-3-2.9,25.6,25.6,0,0,0-5.5,2.8c-7.5,4.7-11.5,7.2-12.1,7.4a55.4,55.4,0,0,1-8.5,3.6,23.7,23.7,0,0,1-7.5,1.3,8.7,8.7,0,0,1-5.4-1.5,4.8,4.8,0,0,1-2.3-3.9A7.4,7.4,0,0,1,76,21.4a6.1,6.1,0,0,1-1.5-4.1,5,5,0,0,1,2.3-4.4c1.4-1,2.6-1.5,3.7-1.3a4.2,4.2,0,0,0-1.8-1.7,5.9,5.9,0,0,0-2.3-.5l-1.6.2a4.5,4.5,0,0,0,.1-1.1A5.3,5.3,0,0,0,74.4,6a6,6,0,0,0-1.6-2.4A6.9,6.9,0,0,0,71.3,6a5.6,5.6,0,0,0-.5,2.5,4.5,4.5,0,0,0,.1,1.1l-1.6-.2a5.9,5.9,0,0,0-2.3.5,4.2,4.2,0,0,0-1.8,1.7,4.7,4.7,0,0,1,3.7,1.2,5.5,5.5,0,0,1,2.3,4.5,5.5,5.5,0,0,1-1.4,3.9,6.8,6.8,0,0,1-4.2,2.3,4.6,4.6,0,0,1-2.1,3.8,8.9,8.9,0,0,1-5.6,1.6,25.5,25.5,0,0,1-7.5-1.2A45.7,45.7,0,0,1,41.9,24c-.8-.4-4.8-2.8-12-7.3a22.9,22.9,0,0,0-5.6-2.9,17.2,17.2,0,0,0-3,2.8,6.3,6.3,0,0,0-.9,3.3,4,4,0,0,0,2,3.8,6.1,6.1,0,0,0,3,.8,3.5,3.5,0,0,0,2.5-.9,2.9,2.9,0,0,0,.9-2.3,1.7,1.7,0,0,0-.4-1.1,1.8,1.8,0,0,0-1.3-.4h-.6a2.3,2.3,0,0,1,1.4-.4,3.7,3.7,0,0,1,1.8.5,2,2,0,0,1,.8,1.7,4.3,4.3,0,0,1-1.4,3.2A5.1,5.1,0,0,1,25.6,26a5.3,5.3,0,0,1-3.9-1.6,6.5,6.5,0,0,1-1.9-4.7A6.6,6.6,0,0,1,21.1,16a11.8,11.8,0,0,1,2.5-2.5,30.5,30.5,0,0,0-6.4-1.9,23.9,23.9,0,0,0-5.3-.8c-3.3,0-5.8.6-7.5,2A6.2,6.2,0,0,0,1.7,18a5.2,5.2,0,0,0,1.9,4.4A5.8,5.8,0,0,0,7,23.5a5.4,5.4,0,0,0,3.7-1.3,4.5,4.5,0,0,0,1.2-3.1,4,4,0,0,0-.6-2.2h.2a4.6,4.6,0,0,1,.7,1.4,5.3,5.3,0,0,1,.1,1.3,5.3,5.3,0,0,1-1.8,4,6,6,0,0,1-4.2,1.6,5.9,5.9,0,0,1-4.8-2A6.3,6.3,0,0,1,0,19a7.5,7.5,0,0,1,3.6-6.6,14.7,14.7,0,0,1,8.2-2.1,50,50,0,0,1,7.6.7,42.6,42.6,0,0,1,5.9,1.5,24.1,24.1,0,0,1,5.9-2.1,30,30,0,0,1,6.7-.8,43.3,43.3,0,0,1,6.6.4,43,43,0,0,1,6.3,1.2A4.8,4.8,0,0,1,52,9.6a3.9,3.9,0,0,1,2.9-1,4.2,4.2,0,0,1,3.4,1.3,3.6,3.6,0,0,1,1,2.7,2.4,2.4,0,0,1-.5,1.8,14.6,14.6,0,0,1,4.7,3.4,7.6,7.6,0,0,1,2.1,5.1,7.5,7.5,0,0,0,3.8-2.2,4.9,4.9,0,0,0,1.1-3.1,4.8,4.8,0,0,0-2-4,9.5,9.5,0,0,0-5.3-1.4,6.3,6.3,0,0,1,2-3.2,4.4,4.4,0,0,1,3-1.3h.4a.8.8,0,0,1,.6.2V7.1a8.8,8.8,0,0,1,.6-3.3,14.7,14.7,0,0,1,3-3.8,10.2,10.2,0,0,1,3,3.7,8.6,8.6,0,0,1,.7,3.4V8a1.7,1.7,0,0,1,1-.3,4.4,4.4,0,0,1,3,1.3,6.3,6.3,0,0,1,2,3.2,9.1,9.1,0,0,0-5.2,1.4,4.6,4.6,0,0,0-2.1,4,4.7,4.7,0,0,0,1.7,3.7,7.4,7.4,0,0,0,3.2,1.6,8.1,8.1,0,0,1,3.2-6.2,20.3,20.3,0,0,1,3.6-2.3,2.7,2.7,0,0,1-.5-1.8,4,4,0,0,1,.9-2.7,4.5,4.5,0,0,1,3.5-1.3,4,4,0,0,1,2.4.7,4.5,4.5,0,0,1,1.7,1.9q3.1-.7,6.3-1.2c2.1-.2,4.3-.4,6.6-.4a31.4,31.4,0,0,1,6.7.8,24.1,24.1,0,0,1,5.9,2.1,43.8,43.8,0,0,1,7.3-1.7,44.4,44.4,0,0,1,6.2-.5,14.9,14.9,0,0,1,8.2,2.1A7.5,7.5,0,0,1,145.7,19ZM64.9,23.7h-2a17,17,0,0,1-8.2-2.1l-4.5-3c-1.8-1.1-3.1-1.7-3.9-1.7a5.6,5.6,0,0,1,.1-.7c.2-.6.4-.9.7-1l.9-.2a2.4,2.4,0,0,1,1.8.7l.4.3a4.9,4.9,0,0,1-.1-1.2,7.2,7.2,0,0,1,.5-3.1,34.9,34.9,0,0,0-5-1.1,67.7,67.7,0,0,0-6.9-.4,44.9,44.9,0,0,0-7.1.7,25.9,25.9,0,0,0-5.5,1.7,50.5,50.5,0,0,1,5.1,1.7,68.7,68.7,0,0,1,6.9,3.3,3.4,3.4,0,0,1-.6-1.2,3.6,3.6,0,0,1-.2-1.4,1.9,1.9,0,0,1,.8-1.8c1.6,2.4,2.7,4.1,3.4,5a23,23,0,0,0,4.9,4.4A32.6,32.6,0,0,0,53,26.2a15.7,15.7,0,0,0,5.7,1.4,8.5,8.5,0,0,0,4.3-1A3.9,3.9,0,0,0,64.9,23.7Zm0-.7A6.8,6.8,0,0,0,63,18.5a15.7,15.7,0,0,0-4.7-3.7c-.2.3-.6.4-1.1.6s-.8.2-.9.1a2.4,2.4,0,0,0,1.1-1.2l-3.1-1.4-3.1-1c-.1.3-.1.6-.2,1v1a6.3,6.3,0,0,0,1.4,4.2,11.1,11.1,0,0,0,3.6,3,13.3,13.3,0,0,0,3.5,1.4,15.1,15.1,0,0,0,4.1.6h1.3Zm-7.1-9.2a3.9,3.9,0,0,0,.3-1.3,3.3,3.3,0,0,0-.9-2.3,3.2,3.2,0,0,0-2.3-.9,4,4,0,0,0-2.4.6,7.3,7.3,0,0,0-1.1,1.5l3.8,1.2Zm23.1,15a3.3,3.3,0,0,1-1.5,1.6,5.9,5.9,0,0,1-2.2.5,2.5,2.5,0,0,1-1.6-.4,14.3,14.3,0,0,1-1.2,4,20.6,20.6,0,0,1-1.6,3.4,32.3,32.3,0,0,1-1.5-3.4,14.3,14.3,0,0,1-1.2-4,2.5,2.5,0,0,1-1.6.4,5.9,5.9,0,0,1-2.2-.5,3.3,3.3,0,0,1-1.5-1.6,8.7,8.7,0,0,0,5.1-3.1,12.8,12.8,0,0,0,2.9-4.9,16.6,16.6,0,0,0,3,4.9A9.3,9.3,0,0,0,80.9,28.8Zm-2.1.4a19,19,0,0,1-4.5-4.1,17.2,17.2,0,0,1-1.4-2.2l-.7,1.3a19.4,19.4,0,0,1-5.3,5,2.3,2.3,0,0,0,1.7.7,3.4,3.4,0,0,0,2.6-1.2,10.7,10.7,0,0,0,.6,2.3,12.3,12.3,0,0,0,1,2.2,7.2,7.2,0,0,0,1.3-2.9,5.7,5.7,0,0,0,.4-1.6,3.4,3.4,0,0,0,2.6,1.2A2.3,2.3,0,0,0,78.8,29.2ZM94.5,11.9l-2.9,1-3.4,1.4a3.4,3.4,0,0,0,1.2,1.2,1.2,1.2,0,0,1-1-.1,1.4,1.4,0,0,1-1-.6,16.9,16.9,0,0,0-4.6,3.5,7,7,0,0,0-2,4.7h1.4a19.2,19.2,0,0,0,4.1-.5,13.4,13.4,0,0,0,3.4-1.5A14.8,14.8,0,0,0,93.4,18a6.5,6.5,0,0,0,1.3-4.1V12.7A3.1,3.1,0,0,1,94.5,11.9Zm25.1.8a25.9,25.9,0,0,0-5.5-1.7,43.8,43.8,0,0,0-7.1-.7,67.4,67.4,0,0,0-6.8.4,26.3,26.3,0,0,0-5.1,1.1,7.4,7.4,0,0,1,.5,3.2v.6a4.3,4.3,0,0,1-.1.5l.6-.5a3,3,0,0,1,1.6-.5l.9.2c.2.1.4.4.6,1l.2.7c-1,0-2.7.8-4.9,2.4L91,21.7a17.3,17.3,0,0,1-8.3,2.1H80.8a7.5,7.5,0,0,0,.5,1.6c1,1.5,2.9,2.3,5.7,2.3a15.7,15.7,0,0,0,5.6-1.4,28.7,28.7,0,0,0,6.7-3.5,20,20,0,0,0,4.8-4.4,36,36,0,0,0,3.5-5,2.1,2.1,0,0,1,.8,1.8,3.4,3.4,0,0,1-.2,1.4,3.4,3.4,0,0,1-.6,1.2,71,71,0,0,1,6.9-3.3ZM94.2,11.4a4.1,4.1,0,0,0-1.4-1.7,4,4,0,0,0-2-.4,3.3,3.3,0,0,0-2.3.9,3.2,3.2,0,0,0-.9,2.3,3.5,3.5,0,0,0,.3,1.3l2.5-1.2Z" style="fill:#262424"/></svg>