<svg xmlns="http://www.w3.org/2000/svg" viewBox="0 0 337.7 26.4"><title>Ресурс 1underscore</title><path d="M167.9,13.1c-1-2.2-3-7.3-5.9-7.3a4.7,4.7,0,0,0-3.7,3.6,17,17,0,0,1,8.3,2.4A3.8,3.8,0,0,1,167.9,13.1Z" style="fill:#2c2426"/><path d="M169.8,13.1c.9-2.2,3-7.3,5.9-7.3a4.7,4.7,0,0,1,3.7,3.6,17,17,0,0,0-8.3,2.4A3.8,3.8,0,0,0,169.8,13.1Z" style="fill:#2c2426"/><path d="M168.8,13.1h0c0-.2-2.8-6.5-2.8-8.3s1.2-2.9,2.8-4.8h0c1.7,1.9,2.9,3,2.9,4.8s-2.8,8.1-2.9,8.3Z" style="fill:#2c2426"/><path d="M190.6,14a8.7,8.7,0,0,1,2,2.3,4.3,4.3,0,0,1,1.6,0l.7.2a3.5,3.5,0,0,1,3.3-2.2,3.6,3.6,0,1,1-3.6,3.6,3.6,3.6,0,0,1,.2-1l-.7-.2h-1.3c1.7,3.4.1,6.4-2.2,6.6V22a3.1,3.1,0,0,0,2.2-2.7,3.8,3.8,0,0,0-.5-2.6h-.1l-1.6.4v-.5l1.4-.2a4,4,0,0,0-1.4-1.5ZM205,20.6a2.7,2.7,0,1,1,2.7-2.7A2.7,2.7,0,0,1,205,20.6Zm5-.9a1.7,1.7,0,0,1-1.7-1.8,1.7,1.7,0,0,1,1.7-1.7,1.8,1.8,0,0,1,1.7,1.7A1.8,1.8,0,0,1,210,19.7ZM170.1,18c1.2-8.3,14.5-9,20.5-4v.9a13.8,13.8,0,0,0-6-2.1c-5.7-1-11.5.6-12.3,5.3a4.9,4.9,0,0,0,2.5,5.3c3.2,1.8,8.4,1.6,9.2-2.6s-1.9-4.4-4.2-4.3-4,1.8-3.4,3.3h0a1.7,1.7,0,0,1,1.7-1.8,1.8,1.8,0,0,1,1.7,1.8,1.8,1.8,0,0,1-1.7,1.7h-.3c-1.9-.3-2.5-2.6-1.4-4.3,2.7-4,10.5-2,9.9,3.7-.3,3.1-2.9,5.2-6.3,5.6C175,26.9,169.2,23.6,170.1,18Zm20.5,5.2V22a1.7,1.7,0,0,1-1.2-.2c-1.5-.7-1.3-3.5,1.2-4.7v-.5a4.3,4.3,0,0,0-3.2,3.9,2.8,2.8,0,0,0,3.1,2.7Z" style="fill:#2c2426"/><path d="M167.6,18c-1.2-8.3-14.5-9-20.6-4v.9a14.8,14.8,0,0,1,6-2.1c5.8-1,11.6.6,12.4,5.3a5,5,0,0,1-2.6,5.3c-3.1,1.8-8.3,1.6-9.2-2.6s2-4.4,4.3-4.3,4,1.8,3.4,3.3h0a1.7,1.7,0,1,0-3.4,0,1.7,1.7,0,0,0,1.7,1.7h.3c1.9-.3,2.5-2.6,1.4-4.3-2.7-4-10.5-2-9.9,3.7.3,3.1,2.9,5.2,6.3,5.6C162.6,26.9,168.5,23.6,167.6,18ZM147,23.2V22a2,2,0,0,0,1.3-.2c1.5-.7,1.3-3.5-1.3-4.7v-.5a4.3,4.3,0,0,1,3.3,3.9,2.8,2.8,0,0,1-3.2,2.7Zm0-9.2a10.6,10.6,0,0,0-1.9,2.3,4.3,4.3,0,0,0-1.6,0l-.7.2a3.5,3.5,0,0,0-3.3-2.2,3.6,3.6,0,1,0,3.6,3.6,3.6,3.6,0,0,0-.2-1l.7-.2h1.3c-1.7,3.4-.2,6.4,2.1,6.6V22c-1.1-.2-1.9-1.5-2.1-2.7a3.8,3.8,0,0,1,.5-2.6h.1l1.5.4v-.5l-1.4-.2a6.7,6.7,0,0,1,1.4-1.5Zm-14.4,6.6a2.7,2.7,0,1,0,0-5.3,2.7,2.7,0,0,0,0,5.3Zm-4.9-.9a1.7,1.7,0,0,0,1.7-1.8,1.7,1.7,0,0,0-3.4,0A1.7,1.7,0,0,0,127.7,19.7Z" style="fill:#2c2426"/><path d="M319.4,17.9h0l-51.2-.8c-36.4-1.2-42.5-1.7-53.2-3v8.8c11.3-1.3,16.7-1.5,53.4-2.7l51-1a.7.7,0,0,0,.7-.7A.7.7,0,0,0,319.4,17.9Z" style="fill:#2c2426"/><path d="M334.1,22.1a3.6,3.6,0,1,0-3.6-3.6A3.6,3.6,0,0,0,334.1,22.1Z" style="fill:#2c2426;fill-rule:evenodd"/><path d="M327.2,21.1a2.6,2.6,0,0,0,2.7-2.6,2.7,2.7,0,0,0-5.3,0A2.6,2.6,0,0,0,327.2,21.1Z" style="fill:#2c2426;fill-rule:evenodd"/><path d="M322.3,20.2a1.6,1.6,0,0,0,1.7-1.7,1.7,1.7,0,0,0-1.7-1.7,1.8,1.8,0,0,0-1.7,1.7A1.7,1.7,0,0,0,322.3,20.2Z" style="fill:#2c2426;fill-rule:evenodd"/><path d="M293.9,22.1a3.6,3.6,0,1,0-3.6-3.6A3.6,3.6,0,0,0,293.9,22.1Z" style="fill:#2c2426;fill-rule:evenodd"/><path d="M300.7,21.1a2.6,2.6,0,0,0,2.7-2.6,2.7,2.7,0,0,0-5.3,0A2.6,2.6,0,0,0,300.7,21.1Z" style="fill:#2c2426;fill-rule:evenodd"/><path d="M305.7,20.2a1.7,1.7,0,0,0,1.7-1.7,1.8,1.8,0,0,0-1.7-1.7,1.7,1.7,0,0,0-1.7,1.7A1.6,1.6,0,0,0,305.7,20.2Z" style="fill:#2c2426;fill-rule:evenodd"/><path d="M18.2,17.2h0l51.3-.8c36.3-1.2,42.5-1.7,53.2-3v8.8c-11.3-1.3-16.8-1.5-53.4-2.7l-51.1-1a.7.7,0,0,1-.6-.7A.6.6,0,0,1,18.2,17.2Z" style="fill:#2c2426"/><path d="M3.6,21.4A3.6,3.6,0,1,0,0,17.8,3.6,3.6,0,0,0,3.6,21.4Z" style="fill:#2c2426;fill-rule:evenodd"/><path d="M10.4,20.4a2.6,2.6,0,0,0,2.7-2.6,2.7,2.7,0,0,0-5.3,0A2.6,2.6,0,0,0,10.4,20.4Z" style="fill:#2c2426;fill-rule:evenodd"/><path d="M15.4,19.5a1.7,1.7,0,0,0,1.7-1.7,1.8,1.8,0,0,0-1.7-1.7,1.8,1.8,0,0,0-1.8,1.7A1.7,1.7,0,0,0,15.4,19.5Z" style="fill:#2c2426;fill-rule:evenodd"/><path d="M43.8,21.4a3.6,3.6,0,1,0-3.6-3.6A3.6,3.6,0,0,0,43.8,21.4Z" style="fill:#2c2426;fill-rule:evenodd"/><path d="M36.9,20.4a2.6,2.6,0,0,0,2.7-2.6,2.7,2.7,0,0,0-5.3,0A2.6,2.6,0,0,0,36.9,20.4Z" style="fill:#2c2426;fill-rule:evenodd"/><path d="M32,19.5a1.6,1.6,0,0,0,1.7-1.7,1.7,1.7,0,0,0-3.4,0A1.6,1.6,0,0,0,32,19.5Z" style="fill:#2c2426;fill-rule:evenodd"/></svg>